<?xml version="1.0" encoding="utf-8"?>
<!-- Generator: Adobe Illustrator 15.0.2, SVG Export Plug-In . SVG Version: 6.00 Build 0)  -->
<!DOCTYPE svg PUBLIC "-//W3C//DTD SVG 1.1//EN" "http://www.w3.org/Graphics/SVG/1.1/DTD/svg11.dtd">
<svg version="1.1" id="Layer_1" xmlns="http://www.w3.org/2000/svg" xmlns:xlink="http://www.w3.org/1999/xlink" x="0px" y="0px"
	 width="175px" height="95px" viewBox="0 0 175 95" enable-background="new 0 0 175 95" xml:space="preserve">
<g id="Layer_1_2_">
	<g>
		<g>
			<rect x="48.808" fill="#E8282E" width="67.03" height="94.831"/>
			<g>
				<path fill="#1A1A1A" d="M11.214,66.809c3.265,0,5.792,1.316,7.795,3.736c0.37,0.477,0.263,1.109-0.263,1.479l-2.422,2.315
					c-0.476,0.42-0.949,0.158-1.316-0.156c-0.845-0.949-2.16-1.687-3.635-1.687c-2.843,0-5.161,2.422-5.161,5.372
					c0,3.002,2.267,5.369,5.109,5.369c2.264,0,3.265-1.103,4.213-1.997c0.371-0.37,0.896-0.476,1.314-0.158l2.267,1.947
					c0.527,0.422,0.736,0.946,0.368,1.475c-1.789,2.79-4.581,4.423-8.317,4.423C5.214,88.927,0,84.187,0,77.868
					C-0.001,71.654,5.316,66.809,11.214,66.809"/>
				<path fill="#1A1A1A" d="M24.602,51.104c0-0.528,0.471-1.001,0.998-1.001h4.475c0.527,0,1.002,0.473,1.002,1.001v17.441
					c1.054-0.789,3.107-1.736,5.582-1.736c6.686,0,9.425,5.157,9.425,10.478v10.111c0,0.525-0.473,1.002-1.001,1.002h-4.265
					c-0.578,0-0.999-0.477-0.999-1.002V77.234c0-2.897-1.634-4.739-4.16-4.739c-2.424,0-4.057,1.581-4.585,3.736v11.166
					c0,0.579-0.315,1.002-1.104,1.002h-4.372c-0.525,0-0.999-0.477-0.999-1.002V51.104H24.602z"/>
				<path fill="#FFFFFF" d="M59.67,75.077c2.107,0,3.843,0.578,3.843,0.578c0.056-2.687-0.788-3.632-2.735-3.632
					c-1.949,0-4.688,0.42-5.899,0.788c-0.735,0.21-1.107-0.264-1.212-0.948l-0.471-2.739c-0.158-0.789,0.261-1.157,0.735-1.315
					c0.423-0.159,3.791-1,7.162-1c6.582,0,8.108,3.422,8.108,9.162v11.427c0,0.526-0.474,1.002-0.999,1.002h-1.9
					c-0.367,0-0.627-0.16-0.892-0.737l-0.632-1.421c-1.21,1.104-3.159,2.684-6.424,2.684c-4.212,0-7.111-2.736-7.111-7.213
					C51.244,77.971,54.296,75.077,59.67,75.077 M59.775,84.45c1.684,0,3.317-1.421,3.635-2.055v-2.895c0,0-1.425-0.635-2.95-0.635
					c-2.052,0-3.422,1.159-3.422,2.844C57.037,83.29,58.142,84.45,59.775,84.45"/>
				<path fill="#FFFFFF" d="M75.886,68.337c0-0.58,0.474-1.003,0.999-1.003h2.005c0.472,0,0.787,0.265,0.946,0.686l0.736,2.055
					c0.738-1.054,2.688-3.266,5.953-3.266c2.474,0,4.686,0.79,4.054,2.105l-1.949,3.425c-0.261,0.472-0.788,0.683-1.208,0.472
					c-0.159-0.053-0.949-0.315-1.531-0.315c-2.104,0-3.369,1.422-3.737,2.162v12.739c0,0.737-0.475,1.003-1.211,1.003h-4.057
					c-0.525,0-0.999-0.476-0.999-1.003L75.886,68.337L75.886,68.337z"/>
				<path fill="#FFFFFF" d="M103.196,66.809c5.425,0,9.848,4.105,9.848,9.796c0,0.368-0.054,1.05-0.104,1.421
					c-0.051,0.524-0.526,0.895-1.001,0.895H98.457c0.163,2.16,2.001,4.578,5.059,4.578c1.631,0,3.157-0.629,4.104-1.314
					c0.527-0.314,1.002-0.421,1.37,0l2.16,2.476c0.366,0.366,0.474,0.948-0.054,1.367c-1.735,1.635-4.423,2.896-7.844,2.896
					c-6.32,0-10.796-5-10.796-11.058C92.455,71.918,96.93,66.809,103.196,66.809 M106.883,75.235
					c-0.16-1.948-1.842-3.581-3.841-3.581c-2.108,0-3.845,1.579-4.112,3.581H106.883z"/>
				<path fill="#1A1A1A" d="M120.244,72.863h-1.79c-0.527,0-0.949-0.472-0.949-0.998v-3.528c0-0.58,0.42-1.003,0.949-1.003h1.79
					v-6.869c0-0.526,0.476-1.001,1.003-1.001l4.315-0.051c0.526,0,0.947,0.472,0.947,1.001v6.92h7.391
					c0.58,0,0.999,0.423,1.381,1.003v3.528c-0.381,0.524-0.8,0.998-1.381,0.998h-7.391v8.427c0,1.475,0.789,1.686,1.633,1.686
					c0.896,0,2.002-0.369,2.581-0.579c0.58-0.212,1,0.051,1.16,0.579l1.052,3.318c0.209,0.524-0.052,1.053-0.58,1.262
					c-0.26,0.159-3.684,1.369-6.263,1.369c-4.056,0-5.849-2.526-5.849-6.792V72.863L120.244,72.863z"/>
				<path fill="#1A1A1A" d="M135.153,72.863h-1.794c-0.524,0,1.842-0.472,1.842-0.998v-3.528c0-0.58-2.366-1.003-1.842-1.003h1.794
					v-6.869c0-0.526,0.472-1.001,1.001-1.001l4.318-0.051c0.524,0,0.947,0.472,0.947,1.001v6.92h4.631
					c0.584,0,1.006,0.423,1.006,1.003v3.528c0,0.524-0.422,0.998-1.006,0.998h-4.631v8.427c0,1.475,0.79,1.686,1.633,1.686
					c0.896,0,2-0.369,2.579-0.579c0.577-0.212,1.003,0.051,1.158,0.579l1.055,3.318c0.211,0.524-0.054,1.053-0.578,1.262
					c-0.264,0.159-3.686,1.369-6.269,1.369c-4.053,0-5.844-2.526-5.844-6.792L135.153,72.863L135.153,72.863z"/>
				<path fill="#1A1A1A" d="M160.669,66.809c5.425,0,9.85,4.105,9.85,9.796c0,0.368-0.053,1.05-0.104,1.421
					c-0.054,0.524-0.529,0.895-1.005,0.895h-13.477c0.155,2.16,1.998,4.578,5.054,4.578c1.63,0,3.157-0.629,4.107-1.314
					c0.526-0.314,1-0.421,1.37,0l2.157,2.476c0.366,0.366,0.474,0.948-0.051,1.367c-1.738,1.635-4.427,2.896-7.845,2.896
					c-6.321,0-10.796-5-10.796-11.058C149.927,71.918,154.401,66.809,160.669,66.809 M164.356,75.235
					c-0.158-1.948-1.841-3.581-3.844-3.581c-2.106,0-3.846,1.579-4.109,3.581H164.356z"/>
				<path fill="#FFFFFF" d="M90.423,48.621c-0.258-0.555,0.126-0.981,0.726-0.981h3.072c0.257,0,0.681,0.214,0.769,0.513
					l2.562,7.641h0.043l4.354-8.195c0.087-0.172,0.3-0.385,0.684-0.385h0.343c0.384,0,0.552,0.172,0.683,0.385l4.312,8.195h0.04
					l2.564-7.641c0.17-0.469,0.513-0.513,0.979-0.513h2.776c0.598,0,0.982,0.427,0.767,0.981l-5.338,16.053
					c-0.084,0.256-0.338,0.47-0.765,0.47h-0.172c-0.342,0-0.555-0.171-0.685-0.385l-5.38-9.948h-0.042l-5.335,9.948
					c-0.13,0.214-0.342,0.385-0.684,0.385h-0.215c-0.384,0-0.641-0.214-0.726-0.47L90.423,48.621z"/>
			</g>
			<text transform="matrix(1 0 0 1 170.5195 88.9229)" fill="#1A1A1A" font-family="'BrandonGrotesque-Bold'" font-size="5.5729">©</text>
		</g>
	</g>
</g>
</svg>
