<?xml version="1.0" encoding="utf-8"?>
<!-- Generator: Adobe Illustrator 16.0.3, SVG Export Plug-In . SVG Version: 6.00 Build 0)  -->
<!DOCTYPE svg PUBLIC "-//W3C//DTD SVG 1.1//EN" "http://www.w3.org/Graphics/SVG/1.1/DTD/svg11.dtd">
<svg version="1.1" xmlns="http://www.w3.org/2000/svg" xmlns:xlink="http://www.w3.org/1999/xlink" x="0px" y="0px" width="147px"
	 height="76px" viewBox="0 0 147 76" enable-background="new 0 0 147 76" xml:space="preserve">
<g id="guides">
</g>
<g id="Layer_1">
	<g>
		<g>
			<rect x="42.63" fill="#E8282E" width="53.624" height="75.863"/>
			<g>
				<path fill="#1A1A1A" d="M12.557,53.446c2.611,0,4.633,1.053,6.235,2.99c0.295,0.38,0.21,0.886-0.21,1.181l-1.937,1.853
					c-0.381,0.337-0.76,0.127-1.054-0.125c-0.675-0.759-1.727-1.349-2.907-1.349c-2.275,0-4.129,1.937-4.129,4.297
					c0,2.403,1.812,4.296,4.087,4.296c1.811,0,2.612-0.883,3.369-1.599c0.297-0.294,0.717-0.379,1.054-0.126l1.812,1.558
					c0.422,0.338,0.589,0.758,0.295,1.18c-1.432,2.233-3.665,3.538-6.655,3.538c-4.761,0-8.932-3.792-8.932-8.847
					C3.584,57.322,7.838,53.446,12.557,53.446"/>
				<path fill="#1A1A1A" d="M23.265,40.882c0-0.422,0.378-0.801,0.799-0.801h3.581c0.421,0,0.8,0.379,0.8,0.801v13.953
					c0.844-0.631,2.486-1.389,4.466-1.389c5.349,0,7.54,4.126,7.54,8.382v8.089c0,0.42-0.378,0.801-0.801,0.801h-3.411
					c-0.463,0-0.8-0.381-0.8-0.801v-8.131c0-2.317-1.307-3.791-3.328-3.791c-1.939,0-3.245,1.265-3.667,2.99v8.932
					c0,0.463-0.253,0.801-0.884,0.801h-3.497c-0.421,0-0.799-0.381-0.799-0.801V40.882z"/>
				<path fill="#FFFFFF" d="M51.32,60.06c1.687,0,3.075,0.464,3.075,0.464c0.044-2.149-0.631-2.907-2.189-2.907
					c-1.56,0-3.75,0.336-4.719,0.631c-0.589,0.168-0.885-0.211-0.969-0.758l-0.378-2.191c-0.127-0.632,0.21-0.926,0.589-1.053
					c0.337-0.127,3.032-0.801,5.729-0.801c5.266,0,6.487,2.738,6.487,7.33v9.142c0,0.421-0.378,0.801-0.799,0.801h-1.52
					c-0.294,0-0.502-0.127-0.714-0.59l-0.505-1.136c-0.968,0.883-2.528,2.147-5.14,2.147c-3.369,0-5.688-2.189-5.688-5.771
					C44.58,62.376,47.022,60.06,51.32,60.06 M51.404,67.559c1.348,0,2.654-1.137,2.908-1.644v-2.316c0,0-1.139-0.507-2.36-0.507
					c-1.642,0-2.737,0.927-2.737,2.275C49.214,66.631,50.098,67.559,51.404,67.559"/>
				<path fill="#FFFFFF" d="M64.293,54.668c0-0.463,0.379-0.802,0.799-0.802h1.603c0.378,0,0.63,0.212,0.758,0.549l0.589,1.644
					c0.591-0.843,2.149-2.613,4.762-2.613c1.979,0,3.749,0.632,3.244,1.685l-1.559,2.739c-0.21,0.377-0.631,0.546-0.968,0.377
					c-0.127-0.041-0.759-0.252-1.224-0.252c-1.684,0-2.695,1.138-2.99,1.729v10.192c0,0.59-0.38,0.802-0.969,0.802h-3.245
					c-0.42,0-0.799-0.38-0.799-0.802V54.668z"/>
				<path fill="#FFFFFF" d="M86.141,53.446c4.339,0,7.879,3.285,7.879,7.836c0,0.295-0.044,0.84-0.085,1.137
					c-0.041,0.42-0.422,0.716-0.8,0.716H82.35c0.13,1.728,1.601,3.663,4.046,3.663c1.304,0,2.526-0.504,3.284-1.052
					c0.422-0.252,0.801-0.337,1.095,0l1.728,1.98c0.294,0.294,0.38,0.758-0.042,1.095c-1.388,1.306-3.539,2.316-6.275,2.316
					c-5.057,0-8.637-4-8.637-8.846C77.548,57.533,81.128,53.446,86.141,53.446 M89.09,60.187c-0.127-1.558-1.474-2.865-3.073-2.865
					c-1.687,0-3.075,1.264-3.288,2.865H89.09z"/>
				<path fill="#1A1A1A" d="M99.779,58.29h-1.432c-0.422,0-0.759-0.378-0.759-0.799v-2.823c0-0.463,0.336-0.801,0.759-0.801h1.432
					v-5.496c0-0.421,0.38-0.8,0.802-0.8l3.452-0.042c0.422,0,0.759,0.378,0.759,0.801v5.537h5.912c0.464,0,0.799,0.338,1.104,0.801
					v2.823c-0.304,0.42-0.639,0.799-1.104,0.799h-5.912v6.741c0,1.179,0.631,1.348,1.306,1.348c0.717,0,1.601-0.295,2.064-0.463
					c0.464-0.169,0.801,0.041,0.929,0.463l0.841,2.655c0.168,0.42-0.042,0.842-0.464,1.01c-0.208,0.127-2.947,1.095-5.011,1.095
					c-3.243,0-4.677-2.021-4.677-5.434V58.29z"/>
				<path fill="#1A1A1A" d="M111.706,58.29h-1.434c-0.421,0,1.473-0.378,1.473-0.799v-2.823c0-0.463-1.894-0.801-1.473-0.801h1.434
					v-5.496c0-0.421,0.378-0.8,0.801-0.8l3.455-0.042c0.419,0,0.757,0.378,0.757,0.801v5.537h3.706c0.465,0,0.803,0.338,0.803,0.801
					v2.823c0,0.42-0.338,0.799-0.803,0.799h-3.706v6.741c0,1.179,0.633,1.348,1.306,1.348c0.717,0,1.601-0.295,2.064-0.463
					c0.462-0.169,0.801,0.041,0.927,0.463l0.843,2.655c0.168,0.42-0.043,0.842-0.462,1.01c-0.212,0.127-2.949,1.095-5.015,1.095
					c-3.242,0-4.675-2.021-4.675-5.434V58.29z"/>
				<path fill="#1A1A1A" d="M132.119,53.446c4.339,0,7.879,3.285,7.879,7.836c0,0.295-0.042,0.84-0.084,1.137
					c-0.042,0.42-0.423,0.716-0.802,0.716H128.33c0.124,1.728,1.598,3.663,4.042,3.663c1.305,0,2.527-0.504,3.286-1.052
					c0.421-0.252,0.8-0.337,1.097,0l1.725,1.98c0.294,0.294,0.38,0.758-0.041,1.095c-1.39,1.306-3.54,2.316-6.276,2.316
					c-5.056,0-8.636-4-8.636-8.846C123.526,57.533,127.106,53.446,132.119,53.446 M135.068,60.187
					c-0.126-1.558-1.473-2.865-3.075-2.865c-1.684,0-3.076,1.264-3.287,2.865H135.068z"/>
				<path fill="#FFFFFF" d="M75.922,38.896c-0.206-0.444,0.102-0.785,0.58-0.785h2.459c0.205,0,0.545,0.171,0.614,0.41l2.049,6.113
					h0.035l3.484-6.557c0.069-0.137,0.24-0.307,0.547-0.307h0.274c0.307,0,0.441,0.137,0.546,0.307l3.449,6.557h0.033l2.051-6.113
					c0.136-0.375,0.41-0.41,0.784-0.41h2.221c0.478,0,0.786,0.341,0.613,0.785l-4.27,12.842c-0.067,0.206-0.271,0.376-0.612,0.376
					h-0.137c-0.274,0-0.444-0.138-0.548-0.308l-4.304-7.958h-0.033l-4.268,7.958c-0.104,0.17-0.274,0.308-0.548,0.308H80.77
					c-0.307,0-0.512-0.17-0.58-0.376L75.922,38.896z"/>
			</g>
			<text transform="matrix(1 0 0 1 140 71.1382)" fill="#1A1A1A" font-family="'BrandonGrotesque-Bold'" font-size="4.4583">©</text>
		</g>
	</g>
</g>
<g id="Layer_3">
</g>
</svg>
